<svg width="191" height="27" viewBox="0 0 191 27" fill="none" xmlns="http://www.w3.org/2000/svg">
<path d="M13.5583 27C9.65965 27 6.41908 25.7019 3.83655 23.1058C1.27885 20.5343 0 17.3324 0 13.5C0 9.64286 1.27885 6.44093 3.83655 3.89423C6.41908 1.29808 9.65965 0 13.5583 0C15.9173 0 18.0901 0.556319 20.0767 1.66896C22.0881 2.75687 23.6525 4.24039 24.7699 6.11951L20.3374 8.67857C19.6918 7.51648 18.773 6.61401 17.5811 5.97115C16.3891 5.30357 15.0482 4.96978 13.5583 4.96978C11.0254 4.96978 8.97677 5.76099 7.41236 7.34341C5.87277 8.95055 5.10298 11.0027 5.10298 13.5C5.10298 15.9725 5.87277 18.0124 7.41236 19.6195C8.97677 21.2019 11.0254 21.9931 13.5583 21.9931C15.0482 21.9931 16.3891 21.6717 17.5811 21.0288C18.7978 20.3613 19.7166 19.4588 20.3374 18.3214L24.7699 20.8805C23.6525 22.7596 22.0881 24.2555 20.0767 25.3681C18.0901 26.456 15.9173 27 13.5583 27Z" fill="#D36205"/>
<path d="M43.6809 24.1813C41.7936 26.0604 39.4594 27 36.6782 27C33.8971 27 31.5628 26.0604 29.6756 24.1813C27.7884 22.3022 26.8448 19.978 26.8448 17.2088C26.8448 14.4643 27.7884 12.1525 29.6756 10.2734C31.5877 8.36951 33.9219 7.41758 36.6782 7.41758C39.4346 7.41758 41.7688 8.36951 43.6809 10.2734C45.5929 12.1772 46.549 14.489 46.549 17.2088C46.549 19.9533 45.5929 22.2775 43.6809 24.1813ZM33.0652 20.8805C34.0336 21.8448 35.238 22.3269 36.6782 22.3269C38.1185 22.3269 39.3229 21.8448 40.2913 20.8805C41.2598 19.9162 41.744 18.6923 41.744 17.2088C41.744 15.7253 41.2598 14.5014 40.2913 13.5371C39.3229 12.5728 38.1185 12.0907 36.6782 12.0907C35.238 12.0907 34.0336 12.5728 33.0652 13.5371C32.1216 14.5261 31.6498 15.75 31.6498 17.2088C31.6498 18.6676 32.1216 19.8915 33.0652 20.8805Z" fill="#D36205"/>
<path d="M54.7342 7.93681V11.1264C55.1564 9.96428 55.8765 9.08654 56.8946 8.49313C57.9127 7.875 59.0798 7.56593 60.3959 7.56593V12.9066C58.9308 12.7088 57.6147 13.0055 56.4476 13.7967C55.3054 14.5632 54.7342 15.8365 54.7342 17.6168V26.4808H49.9292V7.93681H54.7342Z" fill="#D36205"/>
<path d="M78.3826 24.1813C76.4954 26.0604 74.1612 27 71.38 27C68.5988 27 66.2646 26.0604 64.3774 24.1813C62.4902 22.3022 61.5465 19.978 61.5465 17.2088C61.5465 14.4643 62.4902 12.1525 64.3774 10.2734C66.2895 8.36951 68.6237 7.41758 71.38 7.41758C74.1364 7.41758 76.4706 8.36951 78.3826 10.2734C80.2947 12.1772 81.2507 14.489 81.2507 17.2088C81.2507 19.9533 80.2947 22.2775 78.3826 24.1813ZM67.767 20.8805C68.7354 21.8448 69.9398 22.3269 71.38 22.3269C72.8203 22.3269 74.0246 21.8448 74.9931 20.8805C75.9615 19.9162 76.4457 18.6923 76.4457 17.2088C76.4457 15.7253 75.9615 14.5014 74.9931 13.5371C74.0246 12.5728 72.8203 12.0907 71.38 12.0907C69.9398 12.0907 68.7354 12.5728 67.767 13.5371C66.8233 14.5261 66.3515 15.75 66.3515 17.2088C66.3515 18.6676 66.8233 19.8915 67.767 20.8805Z" fill="#D36205"/>
<path d="M94.9859 7.41758C97.047 7.41758 98.7232 8.09753 100.014 9.45742C101.355 10.842 102.026 12.7212 102.026 15.0948V26.4808H97.2208V15.6882C97.2208 14.4766 96.8856 13.5371 96.2151 12.8695C95.5695 12.2019 94.6755 11.8681 93.5333 11.8681C92.2668 11.8681 91.2611 12.2637 90.5162 13.0549C89.7961 13.8214 89.436 14.9588 89.436 16.467V26.4808H84.631V7.93681H89.436V10.0137C90.5783 8.28297 92.4283 7.41758 94.9859 7.41758Z" fill="#D36205"/>
<path d="M120.283 10.125V7.93681H125.088V26.4808H120.283V24.2926C118.843 26.0975 116.819 27 114.211 27C111.728 27 109.593 26.0604 107.805 24.1813C106.042 22.2775 105.16 19.9533 105.16 17.2088C105.16 14.489 106.042 12.1772 107.805 10.2734C109.593 8.36951 111.728 7.41758 114.211 7.41758C116.819 7.41758 118.843 8.32006 120.283 10.125ZM111.418 20.9918C112.386 21.956 113.615 22.4382 115.105 22.4382C116.595 22.4382 117.825 21.956 118.793 20.9918C119.786 20.0027 120.283 18.7418 120.283 17.2088C120.283 15.6758 119.786 14.4272 118.793 13.4629C117.825 12.4739 116.595 11.9794 115.105 11.9794C113.615 11.9794 112.386 12.4739 111.418 13.4629C110.449 14.4272 109.965 15.6758 109.965 17.2088C109.965 18.7418 110.449 20.0027 111.418 20.9918Z" fill="#D36205"/>
<path d="M139.912 26.4808H137.23L127.62 0.519231H130.451L138.571 23.0316L146.691 0.519231H149.522L139.912 26.4808Z" fill="#D36205"/>
<path d="M166.314 11.5714V7.93681H168.773V26.4808H166.314V22.8462C164.601 25.5659 162.093 26.9258 158.79 26.9258C156.133 26.9258 153.861 25.9863 151.974 24.1071C150.111 22.228 149.18 19.9286 149.18 17.2088C149.18 14.489 150.111 12.1896 151.974 10.3104C153.861 8.43132 156.133 7.49176 158.79 7.49176C162.093 7.49176 164.601 8.85165 166.314 11.5714ZM153.762 22.4382C155.177 23.8475 156.915 24.5522 158.976 24.5522C161.037 24.5522 162.776 23.8475 164.191 22.4382C165.606 20.9794 166.314 19.2363 166.314 17.2088C166.314 15.1566 165.606 13.4258 164.191 12.0165C162.776 10.5824 161.037 9.86538 158.976 9.86538C156.915 9.86538 155.177 10.5824 153.762 12.0165C152.346 13.4258 151.638 15.1566 151.638 17.2088C151.638 19.2363 152.346 20.9794 153.762 22.4382Z" fill="#D36205"/>
<path d="M182.656 26.9258C179.85 26.9258 177.516 25.9986 175.654 24.1442C173.791 22.2404 172.86 19.9286 172.86 17.2088C172.86 14.4643 173.791 12.1648 175.654 10.3104C177.516 8.43132 179.85 7.49176 182.656 7.49176C184.494 7.49176 186.145 7.93681 187.61 8.82692C189.076 9.69231 190.143 10.8668 190.814 12.3503L188.802 13.5C188.306 12.3874 187.499 11.5096 186.381 10.8668C185.289 10.1992 184.047 9.86538 182.656 9.86538C180.595 9.86538 178.857 10.5824 177.442 12.0165C176.026 13.4258 175.319 15.1566 175.319 17.2088C175.319 19.2363 176.026 20.9794 177.442 22.4382C178.857 23.8475 180.595 24.5522 182.656 24.5522C184.022 24.5522 185.251 24.2308 186.344 23.5879C187.461 22.9451 188.331 22.0549 188.951 20.9176L191 22.1044C190.23 23.5879 189.1 24.7624 187.61 25.6277C186.12 26.4931 184.469 26.9258 182.656 26.9258Z" fill="#D36205"/>
</svg>
